# xmcd CD database file
#
# Track frame offsets:
#	150
#	25010
#	51085
#	68573
#	85265
#	112123
#	141375
#	159765
#	178625
#	198080
#	215235
#
# Disc length: 3221 seconds
#
# Revision: 2
# Processed by: cddbd v1.5.1PL0 Copyright (c) Steve Scherf et al.
# Submitted via: CDex 1.51
#
DISCID=950c930b
DTITLE=Centaur - Power World
DYEAR=1994
DGENRE=Hard Rock
TTITLE0=Part Of Me(J.S.B.)
TTITLE1=In This World
TTITLE2=Heartache
TTITLE3=Insane
TTITLE4=Trick By Trick
TTITLE5=Centaur (Part II)
TTITLE6=Black Rain
TTITLE7=No More Rules
TTITLE8=Break It
TTITLE9=Got To Believe In Love
TTITLE10=Right In Time
EXTD=YEAR: 1994
EXTT0=
EXTT1=
EXTT2=
EXTT3=
EXTT4=
EXTT5=
EXTT6=
EXTT7=
EXTT8=
EXTT9=
EXTT10=
PLAYORDER=
